<svg id="Layer_1" data-name="Layer 1" xmlns="http://www.w3.org/2000/svg" xmlns:xlink="http://www.w3.org/1999/xlink" viewBox="0 0 5442.52 3061.417"><defs><style>.cls-1{fill:none;}.cls-2{fill:#fff7ed;}.cls-3{fill:url(#linear-gradient);}.cls-4{fill:url(#linear-gradient-2);}.cls-5{fill:url(#New_Gradient_Swatch);}.cls-6{fill:url(#linear-gradient-3);}.cls-7{fill:#223e7c;}.cls-8{fill:url(#New_Gradient_Swatch-2);}.cls-9{fill:url(#New_Pattern_Swatch_3);}.cls-10{fill:url(#linear-gradient-4);}</style><linearGradient id="linear-gradient" x1="1378.128" y1="3857.08" x2="4064.391" y2="-795.663" gradientUnits="userSpaceOnUse"><stop offset="0" stop-color="#c3d8e9"/><stop offset="0.264" stop-color="#d3dfee"/><stop offset="0.968" stop-color="#fff"/></linearGradient><linearGradient id="linear-gradient-2" x1="1806.285" y1="1576.946" x2="1806.285" y2="1133.4" gradientUnits="userSpaceOnUse"><stop offset="0" stop-color="#223e7c"/><stop offset="0.441" stop-color="#3b78a7"/><stop offset="1" stop-color="#5dc7e1"/></linearGradient><linearGradient id="New_Gradient_Swatch" x1="2209.281" y1="1576.946" x2="2209.281" y2="1133.4" xlink:href="#linear-gradient-2"/><linearGradient id="linear-gradient-3" x1="2638.255" y1="1576.946" x2="2638.255" y2="1133.4" xlink:href="#linear-gradient-2"/><linearGradient id="New_Gradient_Swatch-2" x1="1138.92" y1="1555.805" x2="890.706" y2="1125.887" xlink:href="#linear-gradient-2"/><pattern id="New_Pattern_Swatch_3" data-name="New Pattern Swatch 3" width="469.659" height="469.659" patternTransform="translate(-221.02 101.696)" patternUnits="userSpaceOnUse" viewBox="0 0 469.659 469.659"><rect class="cls-1" width="469.659" height="469.659"/><rect class="cls-2" width="469.659" height="469.659"/></pattern><linearGradient id="linear-gradient-4" x1="1205.397" y1="1764.461" x2="744.011" y2="965.317" gradientUnits="userSpaceOnUse"><stop offset="0" stop-color="#223e7c"/><stop offset="0.153" stop-color="#284c86"/><stop offset="0.444" stop-color="#3871a2"/><stop offset="0.837" stop-color="#52accd"/><stop offset="1" stop-color="#5dc7e1"/></linearGradient></defs><rect class="cls-3" width="5442.52" height="3061.417"/><path class="cls-4" d="M1972.615,1507.879v69.067h-332.66V1133.4h323.789v69.067H1722.328v115.321H1936.5v67.8H1722.328v122.292Z"/><path class="cls-5" d="M2250.784,1420.437v156.509h-82.372V1421.705l-174.25-288.3h88.075l129.895,216.07L2343.3,1133.4H2424.4Z"/><path class="cls-6" d="M2804.584,1507.879v69.067H2471.925V1133.4h323.788v69.067H2554.3v115.321h214.169v67.8H2554.3v122.292Z"/><path class="cls-7" d="M2859.078,1530.056l28.513-64c35.484,28.514,91.878,48.79,146.37,48.79,69.066,0,98.214-24.712,98.214-57.661,0-95.679-263.593-32.949-263.593-197.694,0-71.6,57.027-132.43,178.685-132.43,53.226,0,108.986,13.94,147.638,39.285l-25.979,64c-39.919-23.444-83.64-34.85-122.292-34.85-68.433,0-96.313,26.613-96.313,60.2,0,94.412,262.959,32.949,262.959,195.794,0,70.967-57.661,131.8-179.319,131.8C2964.894,1583.282,2895.828,1561.738,2859.078,1530.056Z"/><path class="cls-7" d="M3263.338,1355.173c0-131.163,101.382-228.109,238.881-228.109s238.881,96.312,238.881,228.109-101.382,228.109-238.881,228.109S3263.338,1486.336,3263.338,1355.173Zm394.756,0c0-90.61-66.533-155.875-155.875-155.875s-155.874,65.265-155.874,155.875,66.531,155.875,155.874,155.875S3658.094,1445.783,3658.094,1355.173Z"/><path class="cls-7" d="M4118.746,1576.946l-90.61-129.9a154.336,154.336,0,0,1-17.109.634H3910.913v129.262H3828.54V1133.4h182.487c116.59,0,188.824,59.562,188.824,157.776,0,67.165-34.216,116.588-94.412,140.033l102.016,145.737ZM4007.225,1203.1h-96.312v176.785h96.312c72.235,0,109.62-32.95,109.62-88.709S4079.46,1203.1,4007.225,1203.1Z"/><path class="cls-7" d="M4579.393,1474.3H4357.621L4313.9,1576.946h-84.907l199.6-443.546h81.105l200.229,443.546h-86.175Zm-27.246-64.631-83.639-193.893L4385.5,1409.666Z"/><path class="cls-8" d="M1262.988,1340.847a248.1,248.1,0,0,1-248.174,248.171c-137.062,0-248.175-111.109-248.175-248.171a248.739,248.739,0,0,1,6.717-57.585c25.969-109.295,124.221-190.589,241.458-190.589C1151.875,1092.673,1262.988,1203.786,1262.988,1340.847Z"/><circle class="cls-9" cx="1110.143" cy="1253.806" r="48.709"/><path class="cls-9" d="M1121.057,1511.715A199.452,199.452,0,0,1,1013.33,1543.1c-110.676,0-200.4-89.719-200.4-200.395a200.818,200.818,0,0,1,5.424-46.5q5.234-.473,10.587-.476a116.059,116.059,0,0,1,115.617,105.988c.147,0,.3-.007.442-.007a107.247,107.247,0,0,1,103.475,79.1A106.841,106.841,0,0,1,1121.057,1511.715Z"/><path class="cls-10" d="M1431.546,1323.481c.727,5.109,1.373,10.244,2.062,15.4l.487,3.869c.167,1.291.333,2.583.4,3.876l.572,7.774.554,7.8.256,3.911c.07,1.3.055,2.6.086,3.909l.236,15.7c.1,2.633-.106,5.237-.186,7.859l-.322,7.87-.341,7.894-.737,7.858-.753,7.881c-.293,2.622-.445,5.278-.894,7.877l-2.365,15.707c-.219,1.307-.368,2.634-.647,3.928l-.8,3.894-1.6,7.8-1.621,7.823c-.624,2.586-1.327,5.149-1.99,7.73l-2.023,7.742c-.707,2.573-1.278,5.2-2.142,7.722l-4.873,15.293c-.767,2.575-1.749,5.063-2.679,7.576l-2.834,7.532-2.86,7.542-3.206,7.395-3.221,7.409-1.628,3.7c-.526,1.245-1.177,2.422-1.759,3.637l-7.22,14.5a455.781,455.781,0,0,1-34.533,55.128c-6.662,8.6-13.236,17.346-20.539,25.478l-5.37,6.206-1.346,1.553c-.458.508-.937,1-1.405,1.493l-2.826,2.977c-3.789,3.948-7.548,7.945-11.412,11.841a463.108,463.108,0,0,1-50.286,42.728l-13.613,9.463c-2.247,1.622-4.619,3.04-6.96,4.516l-7.042,4.4-7.062,4.391-7.259,4.054-7.283,4.032c-2.429,1.345-4.847,2.716-7.36,3.9l-14.967,7.355-1.875.918-1.91.837-3.828,1.658-7.675,3.29c-2.566,1.083-5.118,2.208-7.7,3.252l-7.835,2.908-7.849,2.9c-2.617.968-5.229,1.96-7.9,2.749l-15.992,4.994c-2.657.881-5.382,1.491-8.082,2.208l-8.123,2.08-8.134,2.071-8.215,1.689-8.229,1.668-4.12.822-2.061.406-2.074.317-16.619,2.447-4.16.605c-1.39.165-2.785.28-4.177.421l-8.363.805c-11.145,1.314-22.363,1.491-33.579,1.986a468.1,468.1,0,0,1-67.34-3.887c-2.809-.271-5.582-.78-8.364-1.231l-8.347-1.381-8.349-1.4c-2.763-.565-5.513-1.2-8.271-1.8l-8.268-1.831-4.134-.922-2.065-.469-2.043-.555-16.344-4.476c-1.357-.393-2.736-.714-4.074-1.166l-4.029-1.313-8.056-2.639-8.045-2.682c-2.649-.98-5.277-2.021-7.917-3.033l-7.907-3.064c-2.628-1.043-5.3-1.99-7.859-3.186l-15.5-6.89c-2.607-1.1-5.1-2.441-7.634-3.694l-7.567-3.838c-2.516-1.292-5.05-2.551-7.549-3.876l-7.373-4.2-7.367-4.21-3.682-2.109c-1.219-.717-2.4-1.5-3.6-2.251l-14.317-9.115a449.086,449.086,0,0,1-99.961-91.152l-10.39-13.422c-.855-1.126-1.744-2.226-2.57-3.374l-2.438-3.474-4.866-6.952-4.854-6.96c-1.547-2.367-3.033-4.775-4.55-7.163l-4.52-7.18c-1.491-2.4-3.058-4.759-4.391-7.258l-8.28-14.81c-1.426-2.442-2.612-5.014-3.892-7.535l-3.775-7.6c-1.248-2.536-2.525-5.058-3.744-7.607l-3.407-7.767-3.384-7.773-1.676-3.892c-.573-1.292-1.019-2.636-1.534-3.951l-5.953-15.87-.739-1.983-.656-2.015-1.3-4.033-2.58-8.067c-.849-2.692-1.732-5.372-2.547-8.073l-2.174-8.182-2.138-8.187c-.7-2.731-1.464-5.446-1.991-8.219a468.94,468.94,0,0,1-10.044-66.713c-.518-11.218-1.4-22.4-1.109-33.626l.038-8.4c.014-1.4,0-2.8.038-4.2l.222-4.2.919-16.778.126-2.094.216-2.09.435-4.179.9-8.35.932-8.337,1.319-8.292,1.331-8.28c.466-2.756.826-5.526,1.46-8.253l3.5-16.388c.541-2.737,1.291-5.429,2.016-8.125l2.171-8.083,2.181-8.07c.8-2.668,1.692-5.313,2.536-7.968l2.568-7.948,1.3-3.966.66-1.979.742-1.951,5.96-15.581c.947-2.61,2.092-5.144,3.21-7.687l3.352-7.622,3.364-7.606,3.73-7.435,3.741-7.417c1.257-2.466,2.453-4.959,3.863-7.345l8.177-14.427a463.107,463.107,0,0,1,37.963-54c7.169-8.318,14.174-16.737,21.929-24.474,7.439-8.011,15.54-15.369,23.5-22.788a456.57,456.57,0,0,1,51.755-39.435l13.786-8.512c1.157-.692,2.27-1.447,3.462-2.084l3.54-1.96,7.084-3.888,7.074-3.867,7.252-3.536,7.241-3.514c2.419-1.155,4.807-2.359,7.3-3.358l14.788-6.246c2.432-1.095,5-1.9,7.5-2.841l7.527-2.721c2.511-.895,5-1.829,7.519-2.685l7.643-2.331,7.628-2.3,3.807-1.148c1.263-.395,2.572-.663,3.854-1l15.428-3.788c2.547-.684,5.179-1.077,7.764-1.608l7.781-1.469,7.759-1.448L916,927.279l7.81-1.036c2.6-.316,5.178-.766,7.81-.9l15.656-1.192c1.3-.087,2.6-.22,3.9-.27l3.918-.1,7.822-.159,7.794-.137c1.295-.048,2.6,0,3.9.049l3.9.133c5.195.218,10.368.395,15.523.656l-15.235,2.846-3.792.68c-1.263.22-2.525.439-3.777.755l-7.51,1.735-7.482,1.713-3.734.836c-1.241.294-2.468.671-3.7,1l-14.724,4.092c-2.456.627-4.857,1.5-7.275,2.27l-7.228,2.367-7.207,2.343-7.093,2.687-7.069,2.682c-2.345.915-4.729,1.69-7.021,2.752l-13.817,5.985c-1.144.51-2.311.95-3.432,1.515l-3.375,1.655-6.735,3.3-6.72,3.275c-2.208,1.159-4.382,2.39-6.569,3.577l-6.542,3.586c-2.166,1.219-4.384,2.318-6.482,3.661l-12.7,7.73c-2.136,1.236-4.161,2.674-6.21,4.057l-6.145,4.136-6.13,4.122L800.4,1004.1l-5.916,4.4-2.96,2.185c-1,.71-1.915,1.538-2.876,2.3l-11.385,9.3a459.841,459.841,0,0,0-41.809,40.773c-6.236,7.445-12.706,14.617-18.448,22.4l-4.424,5.719-1.106,1.427c-.358.485-.693.987-1.041,1.479l-2.071,2.964c-2.758,3.951-5.581,7.84-8.282,11.809a441.427,441.427,0,0,0-28.351,49.876l-5.953,12.981c-1.043,2.135-1.872,4.37-2.763,6.574l-2.651,6.613-2.648,6.6-2.337,6.72-2.35,6.7c-.786,2.231-1.6,4.45-2.221,6.738l-4.026,13.6-.5,1.7c-.153.57-.281,1.148-.423,1.721l-.836,3.441-1.7,6.868c-.557,2.289-1.161,4.565-1.684,6.861l-1.348,6.939-1.357,6.926c-.457,2.306-.941,4.605-1.222,6.945l-2.052,13.944c-.407,2.31-.543,4.663-.79,7l-.682,7.006-.694,6.995-.331,7.028-.34,7.019-.185,3.505-.094,1.752c-.015.585,0,1.172-.006,1.757l-.008,14.045-.01,3.506c.032,1.17.114,2.34.167,3.509l.355,7.011c.254,9.354,1.406,18.646,2.234,27.938.594,4.628,1.353,9.232,2.006,13.844.356,2.3.634,4.615,1.047,6.906l1.364,6.849,1.333,6.848c.445,2.281.838,4.573,1.456,6.816l3.352,13.525c.5,2.268,1.23,4.475,1.9,6.7l2.014,6.661,1.977,6.667c.739,2.2,1.54,4.374,2.3,6.562l2.306,6.556,1.148,3.278.579,1.637.661,1.607,5.258,12.857c.453,1.065.835,2.159,1.342,3.2l1.478,3.143,2.922,6.3,2.9,6.3c1.045,2.063,2.145,4.1,3.211,6.153l3.213,6.147c1.088,2.04,2.078,4.132,3.3,6.1l7.019,11.963a409.164,409.164,0,0,0,32.1,45.166,388.406,388.406,0,0,0,81.634,74.523A414.327,414.327,0,0,0,851,1682.829a407.138,407.138,0,0,0,51.42,20.789l13.288,4.06,1.661.511,1.683.427,3.371.843,6.741,1.7c2.249.559,4.49,1.158,6.746,1.692l6.817,1.378,6.82,1.395c2.275.46,4.54.984,6.844,1.274l13.779,2.1c2.291.409,4.61.591,6.923.826l6.943.7,6.945.745c2.319.2,4.649.266,6.974.41,4.654.228,9.31.561,13.974.728,9.331-.042,18.693.289,28.033-.319l7.016-.29c1.17-.054,2.342-.08,3.51-.155l3.492-.332,13.989-1.3c.583-.056,1.168-.1,1.749-.166l1.737-.254,3.476-.5,6.961-.974,6.97-.974,6.9-1.333,6.915-1.322c2.3-.46,4.633-.812,6.9-1.429q6.833-1.693,13.705-3.31c2.3-.494,4.55-1.188,6.8-1.855l6.775-1.987,6.788-1.979c2.238-.732,4.45-1.542,6.679-2.307l6.688-2.316,3.353-1.144c.558-.194,1.122-.374,1.675-.579l1.643-.659,13.171-5.258c2.223-.827,4.358-1.843,6.508-2.831l6.461-2.957,6.485-2.933,6.332-3.245,6.344-3.248c2.113-1.09,4.263-2.121,6.294-3.355l12.387-7.116,1.557-.884c.513-.3,1.007-.636,1.512-.952l3.015-1.921,6.043-3.841c2.006-1.3,4.059-2.53,6.036-3.872l5.855-4.139,5.874-4.136,2.952-2.058,2.841-2.2,11.4-8.809c3.706-3.054,7.315-6.229,11-9.33l2.764-2.333c.458-.392.928-.772,1.377-1.173l1.32-1.233,5.29-4.932c7.217-6.44,13.779-13.532,20.619-20.429a460.8,460.8,0,0,0,36.778-45.384l8.217-12.194c.671-1.027,1.411-2.018,2.027-3.077l1.9-3.149,3.844-6.295,3.86-6.309,3.541-6.484,3.559-6.5c1.188-2.169,2.434-4.317,3.468-6.559l6.53-13.358c1.148-2.211,2.04-4.522,3.053-6.791l2.969-6.845c.982-2.288,2.008-4.566,2.958-6.872l2.646-6.993,2.668-7.01,1.337-3.513c.46-1.169.791-2.372,1.193-3.558l4.691-14.311c.847-2.38,1.4-4.825,2.094-7.245l2.022-7.285,2.024-7.311,1.67-7.393,1.691-7.415c.542-2.479,1.195-4.95,1.593-7.453l2.718-15.039c.216-1.258.479-2.515.657-3.778l.488-3.8,1.018-7.608,1.036-7.637c.2-1.276.3-2.553.4-3.831l.328-3.838Z"/></svg>