<svg id="Layer_1" data-name="Layer 1" xmlns="http://www.w3.org/2000/svg" xmlns:xlink="http://www.w3.org/1999/xlink" viewBox="0 0 1898.01 1898.01"><defs><style>.cls-1{fill:none;}.cls-2{fill:#fff7ed;}.cls-3{fill:url(#New_Gradient_Swatch);}.cls-4{fill:url(#New_Pattern_Swatch_3);}.cls-5{fill:url(#linear-gradient);}</style><linearGradient id="New_Gradient_Swatch" x1="1190.094" y1="1276.389" x2="770.816" y2="550.179" gradientUnits="userSpaceOnUse"><stop offset="0" stop-color="#223e7c"/><stop offset="0.441" stop-color="#3b78a7"/><stop offset="1" stop-color="#5dc7e1"/></linearGradient><pattern id="New_Pattern_Swatch_3" data-name="New Pattern Swatch 3" width="469.659" height="469.659" patternTransform="translate(-1816.719 4858.466) scale(1.689)" patternUnits="userSpaceOnUse" viewBox="0 0 469.659 469.659"><rect class="cls-1" width="469.659" height="469.659"/><rect class="cls-2" width="469.659" height="469.659"/></pattern><linearGradient id="linear-gradient" x1="1302.375" y1="1628.855" x2="523.01" y2="278.955" gradientUnits="userSpaceOnUse"><stop offset="0" stop-color="#223e7c"/><stop offset="0.153" stop-color="#284c86"/><stop offset="0.444" stop-color="#3871a2"/><stop offset="0.837" stop-color="#52accd"/><stop offset="1" stop-color="#5dc7e1"/></linearGradient></defs><path class="cls-3" d="M1399.668,913.287c0,148.567-77.288,279.09-193.858,353.542a417.244,417.244,0,0,1-225.354,65.663c-231.521,0-419.212-187.684-419.212-419.2a420.151,420.151,0,0,1,11.346-97.273C616.456,631.4,782.422,494.075,980.456,494.075,1211.977,494.075,1399.668,681.766,1399.668,913.287Z"/><circle class="cls-4" cx="1141.485" cy="766.259" r="82.279"/><path class="cls-4" d="M1159.921,1201.914a336.917,336.917,0,0,1-181.971,53.022c-186.951,0-338.51-151.553-338.51-338.5a339.239,339.239,0,0,1,9.162-78.547q8.84-.8,17.884-.8c102.539,0,186.68,78.727,195.3,179.033.248,0,.5-.011.746-.011a181.157,181.157,0,0,1,174.787,133.605A180.474,180.474,0,0,1,1159.921,1201.914Z"/><path class="cls-5" d="M1684.393,883.951c11.179,69.034,10.461,140.833-1.528,211.471a692.59,692.59,0,0,1-69.455,204.786A718.746,718.746,0,0,1,1482.6,1477.02l-9.976,9.689c-3.322,3.239-6.779,6.328-10.17,9.5l-5.117,4.727-5.221,4.61-5.242,4.594c-1.746,1.534-3.494,3.068-5.29,4.541l-10.717,8.937c-3.6,2.947-7.273,5.805-10.913,8.711-1.831,1.438-3.634,2.917-5.492,4.32l-5.575,4.215c-3.734,2.787-7.4,5.674-11.219,8.355a735.209,735.209,0,0,1-309.4,129.868c-18.647,3.207-37.433,5.557-56.275,7.418q-28.276,2.556-56.733,3.168c-4.74.108-9.484.074-14.229.1l-7.119.01-7.118-.154c-4.746-.123-9.5-.186-14.242-.371l-14.239-.688c-2.375-.1-4.747-.242-7.116-.438l-7.112-.536c-4.741-.362-9.488-.686-14.217-1.207l-14.2-1.44-14.167-1.8A751.765,751.765,0,0,1,642.6,1618.871a760.965,760.965,0,0,1-333.846-304.463,751.669,751.669,0,0,1-84.1-212.1l-3.1-13.943-2.736-14.015c-.952-4.662-1.707-9.36-2.5-14.049l-1.183-7.035-.584-3.518-.507-3.529-2-14.117c-.617-4.711-1.114-9.436-1.671-14.151l-.8-7.077-.641-7.091c-.4-4.728-.9-9.448-1.214-14.181l-.886-14.2-.218-3.548-.139-3.551-.264-7.1c-.452-9.462-.435-18.939-.537-28.4.138-18.938.733-37.865,2.233-56.732a739.25,739.25,0,0,1,51.234-219.512A730.332,730.332,0,0,1,373.065,464.8,718.486,718.486,0,0,1,537.222,318.33a692.332,692.332,0,0,1,197.64-87.862c69.262-18.386,140.71-25.636,210.48-20.771-8.615,1.609-17.217,2.862-25.744,4.677l-6.4,1.243c-2.132.407-4.261.814-6.38,1.3l-12.705,2.759c-4.23.9-8.424,2.02-12.628,2.991l-6.294,1.506c-2.094.515-4.176,1.1-6.262,1.647l-12.483,3.314-12.388,3.59a743.489,743.489,0,0,0-95.807,35.6A718.394,718.394,0,0,0,579.162,375.16,702.557,702.557,0,0,0,448.794,521.411a685.83,685.83,0,0,0-83.243,173.662,669.762,669.762,0,0,0-30.864,187.493l-.148,11.862c-.044,3.952.087,7.91.106,11.86l.059,5.926.206,5.926c.154,3.951.261,7.9.443,11.845.877,15.784,2.126,31.535,4,47.19.457,3.915,1.033,7.813,1.537,11.719l.778,5.854.929,5.831c.637,3.884,1.2,7.777,1.886,11.65l2.141,11.6.528,2.9.6,2.885,1.21,5.767c.808,3.843,1.569,7.7,2.518,11.506l2.7,11.459,2.966,11.386a658.311,658.311,0,0,0,524.63,478.789,670.47,670.47,0,0,0,93.814,9.281l11.83.21,2.959.056,2.96-.02,5.922-.046c7.9.034,15.794-.318,23.7-.531,3.947-.181,7.889-.436,11.838-.645l5.922-.338,5.909-.475c3.937-.335,7.891-.575,11.823-.979l11.8-1.236a669.844,669.844,0,0,0,183.946-47.882,685.3,685.3,0,0,0,165.361-98.825,702.215,702.215,0,0,0,133.724-143.262,718.073,718.073,0,0,0,90.867-178.222,742.56,742.56,0,0,0,26.643-98.682l2.433-12.666,2.153-12.736c.351-2.127.742-4.254,1.062-6.387l.92-6.406c.579-4.276,1.309-8.555,1.816-12.849l1.577-12.906c.565-4.31.887-8.629,1.358-12.957C1683.13,901.357,1683.586,892.677,1684.393,883.951Z"/></svg>